# xmcd CD database file
#
# Track frame offsets:
#	225
#	17853
#	39054
#	58134
#	81009
#	96057
#	114880
#	136340
#	149029
#	162159
#	176799
#	188767
#	199657
#	211443
#	223824
#	242984
#	264975
#	276915
#	288740
#	309021
#
# Disc length: 4402 seconds
#
# Revision: 0
# Processed by: cddbd v1.5.1PL0 Copyright (c) Steve Scherf et al.
# Submitted via: CDex 1.51
#
DISCID=2a112f14
DTITLE=Lightning Hopkins - Sittin' Down Thinkin'
DYEAR=2003
DGENRE=Blues
TTITLE0=Calafornia landslide
TTITLE1=Goin' back home
TTITLE2=Good times
TTITLE3=I'll be gone
TTITLE4=Big car blues
TTITLE5=Don't treat that man the way you treat me
TTITLE6=Shake it baby
TTITLE7=Rossie Mae
TTITLE8=Jake Head
TTITLE9=Santa fe blues
TTITLE10=Shining moon
TTITLE11=What'd I say
TTITLE12=Sittin' down thinkin'
TTITLE13=Shaggy dog
TTITLE14=Leave Jike Mary alone
TTITLE15=I'm gonna meet my baby somewhere
TTITLE16=Lonesome dog
TTITLE17=Talk of the town
TTITLE18=You treat poor Ligntnin' wrong
TTITLE19=Don't wake me
EXTD=YEAR: 2003
EXTT0=
EXTT1=
EXTT2=
EXTT3=
EXTT4=
EXTT5=
EXTT6=
EXTT7=
EXTT8=
EXTT9=
EXTT10=
EXTT11=
EXTT12=
EXTT13=
EXTT14=
EXTT15=
EXTT16=
EXTT17=
EXTT18=
EXTT19=
PLAYORDER=
